<svg width="35" height="35" viewBox="0 0 35 35" fill="none" xmlns="http://www.w3.org/2000/svg">
<rect width="35" height="35" rx="12" fill="#9B59B6"/>
<rect x="1" y="1" width="33" height="33" rx="11" fill="white"/>
<rect x="5" y="6" width="8" height="1" fill="black"/>
<rect x="5" y="7" width="1" height="7" fill="black"/>
<rect x="6" y="13" width="7" height="1" fill="black"/>
<rect x="12" y="14" width="1" height="10" fill="black"/>
<path d="M4 27L12 23.5L13 24L4 28V27Z" fill="black"/>
<path d="M27 10H28L12.5 29.5H11.5L27 10Z" fill="black"/>
<rect x="15" y="9" width="18" height="1" fill="black"/>
<rect x="19" y="6" width="1" height="2" fill="black"/>
<rect x="19" y="4" width="1" height="1" fill="black"/>
<rect x="19" y="11" width="1" height="7" fill="black"/>
<rect x="19" y="24" width="1" height="7" fill="black"/>
</svg>
